<?xml version="1.0" encoding="utf-8"?>
<!-- Generator: Adobe Illustrator 22.0.1, SVG Export Plug-In . SVG Version: 6.00 Build 0)  -->
<svg version="1.1" id="Layer_1" xmlns="http://www.w3.org/2000/svg" xmlns:xlink="http://www.w3.org/1999/xlink" x="0px" y="0px"
	 viewBox="0 0 48 60" style="enable-background:new 0 0 48 60;" xml:space="preserve">
<g>
	<path d="M4,48h40c2.2,0,4-1.8,4-4V18.6c0-2.2-1.8-4-4-4H13.1v-3.5c0-1.5,1.2-2.7,2.7-2.7h4.4c2.6,0,4.7-2.1,4.7-4.7V1
		c0-0.6-0.4-1-1-1s-1,0.4-1,1v2.6c0,1.5-1.2,2.7-2.7,2.7h-4.4c-2.6,0-4.7,2.1-4.7,4.7v3.5H4c-2.2,0-4,1.8-4,4V44C0,46.2,1.8,48,4,48
		z M2,18.6c0-1.1,0.9-2,2-2h40c1.1,0,2,0.9,2,2V44c0,1.1-0.9,2-2,2H4c-1.1,0-2-0.9-2-2V18.6z"/>
	<path d="M5.2,27.3h4.1c0.6,0,1-0.4,1-1v-4.1c0-0.6-0.4-1-1-1H5.2c-0.6,0-1,0.4-1,1v4.1C4.2,26.9,4.6,27.3,5.2,27.3z M6.2,23.2h2.1
		v2.1H6.2V23.2z"/>
	<path d="M13.5,27.3h4.1c0.6,0,1-0.4,1-1v-4.1c0-0.6-0.4-1-1-1h-4.1c-0.6,0-1,0.4-1,1v4.1C12.5,26.9,13,27.3,13.5,27.3z M14.5,23.2
		h2.1v2.1h-2.1V23.2z"/>
	<path d="M21.9,27.3H26c0.6,0,1-0.4,1-1v-4.1c0-0.6-0.4-1-1-1h-4.1c-0.6,0-1,0.4-1,1v4.1C20.9,26.9,21.4,27.3,21.9,27.3z M22.9,23.2
		H25v2.1h-2.1V23.2z"/>
	<path d="M30.3,27.3h4.1c0.6,0,1-0.4,1-1v-4.1c0-0.6-0.4-1-1-1h-4.1c-0.6,0-1,0.4-1,1v4.1C29.3,26.9,29.8,27.3,30.3,27.3z
		 M31.3,23.2h2.1v2.1h-2.1C31.3,25.3,31.3,23.2,31.3,23.2z"/>
	<path d="M38.7,27.3h4.1c0.6,0,1-0.4,1-1v-4.1c0-0.6-0.4-1-1-1h-4.1c-0.6,0-1,0.4-1,1v4.1C37.7,26.9,38.2,27.3,38.7,27.3z
		 M39.7,23.2h2.1v2.1h-2.1V23.2z"/>
	<path d="M5.2,35.5h4.1c0.6,0,1-0.4,1-1v-4.1c0-0.6-0.4-1-1-1H5.2c-0.6,0-1,0.4-1,1v4.1C4.2,35,4.6,35.5,5.2,35.5z M6.2,31.3h2.1
		v2.1H6.2V31.3z"/>
	<path d="M13.5,35.5h4.1c0.6,0,1-0.4,1-1v-4.1c0-0.6-0.4-1-1-1h-4.1c-0.6,0-1,0.4-1,1v4.1C12.5,35,13,35.5,13.5,35.5z M14.5,31.3
		h2.1v2.1h-2.1V31.3z"/>
	<path d="M21.9,35.5H26c0.6,0,1-0.4,1-1v-4.1c0-0.6-0.4-1-1-1h-4.1c-0.6,0-1,0.4-1,1v4.1C20.9,35,21.4,35.5,21.9,35.5z M22.9,31.3
		H25v2.1h-2.1V31.3z"/>
	<path d="M30.3,35.5h4.1c0.6,0,1-0.4,1-1v-4.1c0-0.6-0.4-1-1-1h-4.1c-0.6,0-1,0.4-1,1v4.1C29.3,35,29.8,35.5,30.3,35.5z M31.3,31.3
		h2.1v2.1h-2.1C31.3,33.4,31.3,31.3,31.3,31.3z"/>
	<path d="M38.7,35.5h4.1c0.6,0,1-0.4,1-1v-4.1c0-0.6-0.4-1-1-1h-4.1c-0.6,0-1,0.4-1,1v4.1C37.7,35,38.2,35.5,38.7,35.5z M39.7,31.3
		h2.1v2.1h-2.1V31.3z"/>
	<path d="M5.2,44h20.6c0.6,0,1-0.4,1-1v-4.1c0-0.6-0.4-1-1-1H5.2c-0.6,0-1,0.4-1,1V43C4.2,43.5,4.6,44,5.2,44z M6.2,39.8h18.6V42
		H6.2V39.8z"/>
	<path d="M30.3,44h4.1c0.6,0,1-0.4,1-1v-4.1c0-0.6-0.4-1-1-1h-4.1c-0.6,0-1,0.4-1,1V43C29.3,43.5,29.8,44,30.3,44z M31.3,39.8h2.1
		V42h-2.1C31.3,42,31.3,39.8,31.3,39.8z"/>
	<path d="M38.7,44h4.1c0.6,0,1-0.4,1-1v-4.1c0-0.6-0.4-1-1-1h-4.1c-0.6,0-1,0.4-1,1V43C37.7,43.5,38.2,44,38.7,44z M39.7,39.8h2.1
		V42h-2.1V39.8z"/>
</g>
</svg>
