<?xml version="1.0" encoding="utf-8"?>
<!-- Generator: Adobe Illustrator 22.0.1, SVG Export Plug-In . SVG Version: 6.00 Build 0)  -->
<svg version="1.1" id="Layer_1" xmlns="http://www.w3.org/2000/svg" xmlns:xlink="http://www.w3.org/1999/xlink" x="0px" y="0px"
	 viewBox="0 0 100 125" style="enable-background:new 0 0 100 125;" xml:space="preserve">
<g>
	<path d="M50.1,31.2L50.1,31.2c-3,0-5.4,2.4-5.4,5.3v15.3c0,2.9,2.4,5.3,5.3,5.3h0.1c2.9,0,5.3-2.4,5.3-5.3V36.4
		C55.3,33.5,53,31.2,50.1,31.2z"/>
	<path d="M53.5,15.3h-0.9h-5.3h-0.9c-11.6,0-21.1,9.5-21.1,21.1v12.7v21.5C25.4,84,36.2,95,49.5,95.2H50l0,0
		c6.6,0,12.8-2.7,17.4-7.5s7.2-11,7.2-17.6v-21V36.3C74.6,24.7,65.2,15.3,53.5,15.3z M69.3,43.8H58.4v5.3h10.9v21
		c0,5.2-2,10.2-5.7,14C60,87.9,55.1,90,50,90l0,0h-0.4c-10.5-0.2-19-8.9-19-19.3V49.1h10.9v-5.3H30.7v-7.5c0-8.7,7.1-15.8,15.8-15.8
		h0.9v7.9c0.8-0.3,1.7-0.4,2.6-0.4h0.1c0.9,0,1.8,0.1,2.6,0.4v-7.9h0.9c8.7,0,15.8,7.1,15.8,15.8L69.3,43.8L69.3,43.8z"/>
</g>
<path d="M24.8,21.5l-5.1-2.9c-0.9-0.5-2-0.2-2.5,0.7l0,0c-0.5,0.9-0.2,2,0.7,2.5l5,2.9c0.5,0.3,1.2,0.1,1.5-0.4
	c0.2-0.4,0.5-0.8,0.7-1.2C25.5,22.6,25.4,21.9,24.8,21.5z"/>
<path d="M29.9,17.7c0.4-0.3,0.7-0.6,1.1-0.9c0.5-0.4,0.6-1.1,0.2-1.6l-3.8-4.5c-0.7-0.8-1.8-0.9-2.6-0.2l0,0
	c-0.8,0.7-0.9,1.8-0.2,2.6l3.7,4.5C28.7,18.1,29.4,18.1,29.9,17.7z"/>
<path d="M37.2,13.3c0.4-0.2,0.9-0.3,1.3-0.5c0.6-0.2,0.9-0.8,0.7-1.4l-2-5.5c-0.3-1-1.4-1.4-2.3-1.1l0,0c-1,0.3-1.4,1.4-1.1,2.3
	l2,5.5C35.9,13.3,36.6,13.6,37.2,13.3z"/>
</svg>
